<?xml version="1.0" standalone="no"?><!DOCTYPE svg PUBLIC "-//W3C//DTD SVG 1.1//EN" "http://www.w3.org/Graphics/SVG/1.1/DTD/svg11.dtd"><svg t="1776994819438" class="icon" viewBox="0 0 1024 1024" version="1.1" xmlns="http://www.w3.org/2000/svg" p-id="11611" width="81" height="81" xmlns:xlink="http://www.w3.org/1999/xlink"><path d="M511.3 927.1c-56 0-110.3-11-161.5-32.6-49.4-20.9-93.8-50.8-131.9-88.9s-68-82.5-88.9-131.9c-21.6-51.2-32.6-105.5-32.6-161.5s11-110.3 32.6-161.5c21-49.4 50.9-93.7 89-131.8 38.1-38.1 82.5-68 131.9-88.9 51.2-21.6 105.5-32.6 161.5-32.6s110.3 11 161.5 32.6c49.4 20.9 93.8 50.8 131.9 88.9 38.1 38.1 68 82.5 88.9 131.9 21.6 51.2 32.6 105.5 32.6 161.5s-11 110.3-32.6 161.5c-20.9 49.4-50.8 93.8-88.9 131.9s-82.5 68-131.9 88.9c-51.2 21.5-105.6 32.5-161.6 32.5z m0-769.7c-195.7 0-354.8 159.2-354.8 354.8S315.7 867 511.3 867s354.8-159.2 354.8-354.8S707 157.4 511.3 157.4z" fill="#515151" p-id="11612"></path><path d="M511.3 762c-112.4 0-208.8-80.1-229.3-190.5-3-16.3 7.7-31.9 24-35 16.3-3 31.9 7.7 35 24 15.2 82 86.8 141.5 170.3 141.5 83.5 0 155.1-59.5 170.3-141.4 3-16.3 18.7-27 35-24s27 18.7 24 35C720.2 681.9 623.7 762 511.3 762z" fill="#515151" p-id="11613"></path></svg>