<?xml version="1.0" standalone="no"?><!DOCTYPE svg PUBLIC "-//W3C//DTD SVG 1.1//EN" "http://www.w3.org/Graphics/SVG/1.1/DTD/svg11.dtd"><svg t="1776994698461" class="icon" viewBox="0 0 1024 1024" version="1.1" xmlns="http://www.w3.org/2000/svg" p-id="8605" width="81" height="81" xmlns:xlink="http://www.w3.org/1999/xlink"><path d="M792.066679 845.542466a488.861958 488.861958 0 0 0-116.270955 49.922592c-62.247809 36.935144-94.951458 75.084535-96.312658 76.69254l29.778718 25.296651c0.301442-0.352311 30.747102-35.598436 87.875103-69.213949 52.380287-30.823404 138.739702-66.622488 252.738537-62.094261l1.549602-39.043356c-54.828563-2.172268-108.446647 4.029905-159.359289 18.439783z m-438.367568 49.922592a488.84406 488.84406 0 0 0-116.270956-49.922592c-50.915467-14.41082-104.534493-20.612051-159.356462-18.441667l1.548659 39.043356c113.979053-4.522575 200.355424 31.271799 252.738537 62.094261 57.128002 33.61457 87.573661 68.864464 87.874161 69.213949l29.778719-25.297593c-1.363084-1.603296-34.063907-39.75457-96.312658-76.688772z m328.715152-142.221359c50.382291-25.438893 95.566589-61.784341 134.299082-108.021802 38.520542-45.985945 68.742003-99.474033 89.825999-158.978718 21.763183-61.426379 32.796908-126.641508 32.796908-193.832968l0.003769-6.776797c0.025434-28.686933 0.052752-58.351668-3.632379-83.070869-1.92923-12.946941-7.8017-52.347317-39.036761-60.052932l-2.365379-0.584044-2.436972 0.016014c-37.099995 0.23456-82.472694 7.517214-127.761554 20.507487-36.455663 10.456275-69.513507 23.695239-95.447896 38.099465C621.070781 109.423508 574.003412 60.003006 535.70801 19.787795l-18.811875-19.787795-16.07723 16.464395c-38.06461 38.967995-89.330504 91.457555-140.116916 184.435508-58.383697-33.486457-151.025354-59.077956-218.671803-59.077955h-7.513446l-5.57668 5.035026c-23.790381 21.473045-34.870265 67.724636-34.870266 145.556063 0 67.190518 11.034668 132.405648 32.798793 193.832026 21.083054 59.505627 51.304516 112.993714 89.825999 158.978718 38.731551 46.239345 83.916791 82.581025 134.300023 108.021802 45.896455 23.175251 94.321256 36.352042 144.236312 39.284509v231.469908h39.072557V792.725088c51.284734-2.463348 101.027402-15.708905 148.111727-39.482331zM133.143294 292.412095c0-70.462108 9.65557-99.447657 17.614585-111.363101 66.929582 2.327699 159.127555 30.500296 206.076231 63.588285l18.350292 12.933753 10.274468-19.95924c46.312822-89.960706 92.392026-141.272758 131.076476-181.277902 37.353395 39.481388 82.20328 89.931504 126.718753 180.523355l9.915564 20.173075 18.595214-12.627601c48.990947-33.267912 146.994507-61.829557 216.306424-63.331116 1.743655 1.755901 6.113624 7.939233 8.992397 27.252256 3.254633 21.837601 3.231083 50.02056 3.206591 77.275643l-0.005652 6.810709c0 254.566972-172.064134 461.671874-383.55973 461.671874-211.496538 0.001884-383.561614-207.10396-383.561613-461.66999z" fill="#515151" p-id="8606"></path></svg>